<svg xmlns="http://www.w3.org/2000/svg" viewBox="0 0 515.8 56.64">
  <defs>
    <style>
      .cls-1 {
        fill: #f9a451;
      }

      .cls-2 {
        fill: #f16725;
      }

      .cls-3 {
        fill: #c23a27;
      }
    </style>
  </defs>
  <title>RTW_TextAsset 1</title>
  <g id="Layer_2" data-name="Layer 2">
    <g id="TextHorizontal">
      <g>
        <g>
          <path class="cls-1" d="M18.51,11c6.34,0,13.88,4.94,13.86,13.72,0,3.89-.75,11-7.6,12v.14c8.78,2.55,8.76,7.23,8.74,14.57,0,.86.35,1.73,1.94,2.38a1.46,1.46,0,0,1,.65,1c0,9.79-7.23,10.35-9.61,10.34-5.18,0-8.63-3.63-8.61-10.39l0-11.09c0-2.3-1-3.46-1.79-3.46-.43,0-.5.36-.51.86l-.07,23a.88.88,0,0,1-.87.86l-12.31,0A.85.85,0,0,1,1.5,64l.16-52.2a.82.82,0,0,1,.79-.86ZM15.64,33.36c0,.5.14.65.5.65,1.73,0,1.73-2,1.74-5.32,0-1.66-1-2.6-1.65-2.6-.36,0-.58.22-.58.65Z" transform="translate(-1.5 -8.93)"/>
          <path class="cls-1" d="M36.29,12a1,1,0,0,1,.94-.93l25.56.08a.74.74,0,0,1,.72.79l0,13a.74.74,0,0,1-.79.72l-12,0a.49.49,0,0,0-.51.5v4a.54.54,0,0,0,.5.51l5.69,0a.49.49,0,0,1,.5.51l0,13.11a.63.63,0,0,1-.58.65l-5.83,0a.51.51,0,0,0-.51.58v4.25a.48.48,0,0,0,.43.5l12.46,0a.74.74,0,0,1,.79.72l0,13.39a.8.8,0,0,1-.79.79L36.92,65a.89.89,0,0,1-.79-.94Z" transform="translate(-1.5 -8.93)"/>
          <path class="cls-1" d="M64.24,31.7c0-13.1,6.18-20.72,16-20.69,10.51,0,16,9,16,19.35,0,1.94,0,2.16-.65,2.16L82.31,33A1.37,1.37,0,0,1,81,31.54V27c0-1-.57-1.37-1.15-1.37a1.22,1.22,0,0,0-1.16,1.29l-.07,22.39a1.15,1.15,0,0,0,1.15,1.23A1.18,1.18,0,0,0,81,49.25L81,42c0-.43.29-1.08.87-1l13.61.54a.57.57,0,0,1,.57.58C96,59.45,88.84,65.41,79.76,65.38c-10,0-15.6-9-15.57-19.34Z" transform="translate(-1.5 -8.93)"/>
          <path class="cls-1" d="M93.82,11.78a.45.45,0,0,1,.43-.58l13.1,0c.36,0,.65.22.79.72l3.41,14.92a.76.76,0,0,0,.36.58c.14,0,.36-.21.36-.57l3.36-14.68c.15-.5.43-.94.87-.93l12.53,0a.63.63,0,0,1,.57.87l-9.52,30.29a20.17,20.17,0,0,0-.66,3.81l-.05,18.07a1,1,0,0,1-1,.93l-14,0c-.43,0-.79-.51-.86-.87l.05-18.29a10.52,10.52,0,0,0-.64-3.53Z" transform="translate(-1.5 -8.93)"/>
          <path class="cls-1" d="M126.16,31.89c0-13.1,6.18-20.72,16-20.69,10.51,0,16,9,16,19.35,0,1.94,0,2.16-.65,2.16l-13.32.46a1.37,1.37,0,0,1-1.29-1.44V27.19c0-1-.57-1.37-1.15-1.37a1.22,1.22,0,0,0-1.16,1.29l-.07,22.39a1.16,1.16,0,0,0,1.15,1.23,1.18,1.18,0,0,0,1.16-1.29l0-7.27c0-.43.29-1.08.87-1l13.61.54a.57.57,0,0,1,.57.58c-.05,17.35-7.2,23.31-16.27,23.28-10,0-15.6-9-15.57-19.34Z" transform="translate(-1.5 -8.93)"/>
          <path class="cls-1" d="M185.36,50.57a.74.74,0,0,1,.79.72l0,13.39a.8.8,0,0,1-.79.79l-25.78-.08a.88.88,0,0,1-.79-.94l.16-52.06a1.07,1.07,0,0,1,.94-1l12.17,0a.74.74,0,0,1,.72.79L172.62,50a.48.48,0,0,0,.43.51Z" transform="translate(-1.5 -8.93)"/>
          <path class="cls-1" d="M187.05,12.41a1,1,0,0,1,.94-.93l25.56.08a.74.74,0,0,1,.72.79l0,13a.74.74,0,0,1-.79.72l-12,0a.49.49,0,0,0-.51.5v4a.54.54,0,0,0,.5.5l5.69,0a.49.49,0,0,1,.5.5l0,13.11a.64.64,0,0,1-.58.65l-5.83,0a.51.51,0,0,0-.51.57v4.25a.48.48,0,0,0,.43.5l12.46,0a.74.74,0,0,1,.79.72l0,13.39a.8.8,0,0,1-.79.79l-25.78-.08a.89.89,0,0,1-.79-.94Z" transform="translate(-1.5 -8.93)"/>
        </g>
        <g>
          <path class="cls-2" d="M360.19,9a1.08,1.08,0,0,1,1.08.94L362.8,27c.07.79.28,1.37.57,1.37s.58-.58.65-1.37l1.78-17.06c.15-.58.36-.94.87-.93L374,9a1,1,0,0,1,.86.79L376.7,27c.07.79.28,1.37.57,1.37s.58-.57.65-1.37l1.49-17.13c.07-.5.36-.86.79-.86l11.67,0c.72,0,.93.44.86,1L385.88,62c-.07.72-.51,1.08-.94,1.08l-10.51,0a.92.92,0,0,1-.86-.79l-2.68-17.43c-.07-.65-.28-1.15-.57-1.15s-.51.57-.58,1.22l-2.57,17.27c-.15.5-.36.86-.79.86l-10.66,0a1.07,1.07,0,0,1-1-.94L347.95,9.86a.74.74,0,0,1,.79-.93Z" transform="translate(-1.5 -8.93)"/>
          <path class="cls-2" d="M391.89,25.47c0-11.16,7-16.54,15-16.52s15,5.45,14.93,16.61l-.06,21.31c0,11.09-7.11,16.47-15,16.44s-15-5.37-14.93-16.53Zm13.76,21.14c0,1.08.35,1.87,1.15,1.88S408,47.7,408,46.62L408,25.74c0-.94-.35-1.95-1.15-1.95s-1.16.93-1.16,1.94Z" transform="translate(-1.5 -8.93)"/>
          <path class="cls-2" d="M439.39,9.2c6.34,0,13.88,4.94,13.86,13.72,0,3.89-.75,11-7.6,12v.14c8.78,2.54,8.76,7.22,8.74,14.57,0,.86.36,1.73,1.94,2.38a1.46,1.46,0,0,1,.64,1c0,9.79-7.23,10.35-9.61,10.34-5.18,0-8.63-3.62-8.61-10.39l0-11.09c0-2.3-1-3.46-1.79-3.46-.43,0-.51.36-.51.86l-.07,23a.87.87,0,0,1-.87.86l-12.31,0a.85.85,0,0,1-.86-.94l.16-52.2a.82.82,0,0,1,.8-.86Zm-2.88,22.39c0,.5.14.65.5.65,1.73,0,1.73-2,1.74-5.32,0-1.66-1-2.6-1.65-2.6-.36,0-.58.22-.58.65Z" transform="translate(-1.5 -8.93)"/>
          <path class="cls-2" d="M483.63,48.43a.74.74,0,0,1,.79.72l0,13.39a.8.8,0,0,1-.79.79l-25.78-.08a.89.89,0,0,1-.79-.94l.16-52.06a1.08,1.08,0,0,1,.94-1l12.17,0a.74.74,0,0,1,.72.79l-.11,37.8a.48.48,0,0,0,.43.5Z" transform="translate(-1.5 -8.93)"/>
          <path class="cls-2" d="M486,63.34a.79.79,0,0,1-.86-.87l.16-52.06a1,1,0,0,1,.94-1.08l12.89,0c11.45,0,18.2,7.33,18.16,20.43l0,13.39c0,11.67-6.61,20.21-17.77,20.18Zm16.82-37.75a2.06,2.06,0,0,0-.64-1.66,2.5,2.5,0,0,0-1.22-.44c-.29,0-.43.21-.43.65L500.47,48c0,.43.14.58.43.58s1.87,0,1.88-2.08Z" transform="translate(-1.5 -8.93)"/>
        </g>
        <g>
          <path class="cls-3" d="M243.27,65a1,1,0,0,1-1-1l.11-37.59a.89.89,0,0,0-.93-.87l-7.2,0a1.15,1.15,0,0,1-.93-1l0-12.82c0-.43.22-.72.65-.72l30.82.09a.85.85,0,0,1,.93.87l0,12.67a1,1,0,0,1-1,1l-7.2,0c-.5,0-.87.36-.87,1l-.11,37.51a1,1,0,0,1-1,.93Z" transform="translate(-1.5 -8.93)"/>
          <path class="cls-3" d="M266.47,11.74a.68.68,0,0,1,.72-.72l12.1,0c.43,0,.65.22.65.58l-.06,18.87a.49.49,0,0,0,.5.5h1.44a.64.64,0,0,0,.65-.5l.06-18.79a.59.59,0,0,1,.58-.65l12.17,0a.66.66,0,0,1,.72.65l-.16,52.56c0,.36-.22.79-.58.79l-12.24,0c-.36,0-.65-.43-.65-.79l.06-18.79c0-.29-.14-.58-.43-.58h-1.66a.51.51,0,0,0-.51.58l-.06,18.87a.71.71,0,0,1-.65.72l-11.88,0a1,1,0,0,1-.93-1.08Z" transform="translate(-1.5 -8.93)"/>
          <path class="cls-3" d="M297.07,12a1,1,0,0,1,.94-.93l25.56.08a.74.74,0,0,1,.72.79l0,13a.74.74,0,0,1-.79.72l-12,0a.49.49,0,0,0-.5.5v4a.54.54,0,0,0,.5.5l5.69,0a.49.49,0,0,1,.5.5l0,13.11a.63.63,0,0,1-.58.65l-5.83,0a.51.51,0,0,0-.5.57v4.25a.48.48,0,0,0,.43.51l12.46,0a.74.74,0,0,1,.79.72l0,13.39a.8.8,0,0,1-.79.79l-25.78-.08a.89.89,0,0,1-.79-.94Z" transform="translate(-1.5 -8.93)"/>
        </g>
      </g>
    </g>
  </g>
</svg>
